<svg xmlns="http://www.w3.org/2000/svg" viewBox="-10 0 835 1000">
  <path fill="currentColor" d="M415 48v24h6q1 4 4.5 9.5T430 89q2 7-1 10t-5 7q2 2 2 7v10h-4q0 20 .5 42.5T428 207v15q2 11 2.5 24.5T433 272q2 6 2 10.5V294q5 22 7 44.5t8 43.5q3 15 4.5 31.5T461 444q1 7 1 13t2 10h11q0 9-1 14.5t1 13.5h8v12h-4q0 9 4 17t7 15q5 17 9.5 32t11.5 30q2 4 4.5 16.5T521 632q4 2 10 1t10-1q1 3 1 6-3 2-2 10t1 13h9v22h-8v1q6 6 7.5 14.5T554 716q9 20 20.5 40.5T601 793l1-1q8-6 11-17.5t5-22.5q6-17 11-33.5t11-31.5q3-8 10.5-19.5T667 644t19-22 17-15q13-11 27.5-24.5T755 553q9-15 11-37t-8-38q-6-9-17.5-17t-24-12-25.5-1-22 16q-8 14-4 31t15 23q5 4 13 5t13 4q0 1-1 2t-1 4q-15 9-29.5 3.5T650 518t-12.5-30 6.5-32q11-17 38-29.5t59-3.5q16 5 29 16t21 25q5 7 8.5 16.5T806 498q2 14 .5 30t-6.5 27q-7 29-20 55-11 15-25 27.5T731 667q-15 22-25 49.5T685 769q-5 13-7 28.5t-5 30-8.5 26.5-18.5 18H524q-14-21-22-46t-17-48q-6-18-12-35t-20-27q-7-5-17.5-8t-22-4-22.5 1.5-19 8.5q-10 7-18 20.5t-14 29-10.5 31T320 823q-3 9-6.5 17.5T307 857q-3 4-3.5 8.5T301 872H176q-2-2-2-6 15-9 27-27.5t21-34.5q2-5 7.5-11.5T233 781t-5.5-8-6.5-6q-12-12-24-16.5t-26-6.5-29.5-3-33.5-5q-44-11-69-50-13-21-16.5-46t2.5-47.5T45.5 553 83 530q12-2 23 .5t20 8.5 15 13.5 9 14.5q7 15 .5 29T134 615q-7 2-14 1.5t-13-1.5q-2-2-5-4t-4-5q-3-4-2-10.5t2-8.5q6 4 10 9t15 5q5 0 7-5 3-3 4-10t-3-10q-2-11-19.5-17.5T80 558q-7 3-13.5 8.5t-11.5 13-7 17.5 0 22q5 19 12.5 30T79 666t25.5 9.5T138 684h21q16 0 31.5 1t30.5 1q7 2 13.5 3.5T248 694q7 2 11.5 6t13.5 6q5-5 6-8 2-23-6.5-42.5T253 620q-19-32-37-61.5T185 493q-2-6-5-16t-5-21.5-3-23.5 1-21q3-11 5-24t7-24q10-24 27-43.5t38-34.5q11-6 27-12.5t30.5-16 22.5-23 3-33.5q-3-11-7-21t-10-16q-11-7-21.5-11T279 137q5-2 8.5-2.5t8.5-.5q2 3 11 3 20 10 31 29 5 7 9 19t4.5 25.5T350 237t-9 23q-11 18-30.5 31.5T277 322q-11 14-20 29.5T242 384q-9 24-6 46t11 42 20 36.5 21 29.5q2 3 7 9.5t10.5 13.5 10 12.5 5.5 5.5q3-5 6.5-14t7-19.5 6.5-21 4-17.5h-6v-12h9q2-2 2-7 2-2 0-8t-2-13h11q3-21 7.5-41t8.5-42q5-20 6-39t6-39v-10.5l1-10.5q3-13 3-30t4-31v-13q5-19 5.5-43.5t.5-44.5h-5v-16q0-1 2.5-.5t.5-.5q-2-5-4-7t-3-8q5-5 6.5-11t9.5-8V50q2-2 7-2zm-12 459q-1 35-10.5 64T379 632h64q-1-12-4.5-23t-6.5-22l-6-40-7-40h-16z"/>
</svg>
