<svg xmlns="http://www.w3.org/2000/svg" viewBox="-10 0 1171 1000">
  <path fill="currentColor" d="M840 208q5-2 8-4l6-4q16-11 41-19 29-8 56-5t49 13.5 37.5 28T1058 256q8 30-6 52.5t-32 29.5q-15 7-28 5.5t-22.5-8.5-15.5-18.5-6-26.5q4-3 6.5-5.5l6.5-6.5q8 0 11.5 2t4.5 4.5l2 5 5 4.5q5 4 9.5 3.5t9-3.5 8-7 5.5-5q0-14-4-24.5T999 243q-8-5-22-4.5t-23 3.5q-6 2-11.5 4t-10.5 7q-7 4-10.5 13.5t-4 20.5 2 22 7.5 18q3 6 7.5 11t8.5 9q9 14 17.5 27.5T980 401q9 14 20.5 26t21.5 26q12 17 22 32.5t21 32.5q5 7 12 13.5t12 12.5q17 23 29 51t21 60q3 11 5 25.5t3 30 .5 30-4.5 26.5q-8 17-17.5 31.5T1106 827q-8 11-17.5 21t-26.5 11v7H672q-5 8-17.5 14.5t-29 11-34 5.5-32.5-3q-11-2-22-4.5t-19-7.5q-5-4-10.5-9t-11.5-7H107v-4q-10-8-16.5-17T77 827q-9-12-17.5-24.5T45 776q-9-19-14.5-43.5t-6.5-50 3.5-50T44 589q13-21 33.5-35.5T118 525q18-13 36.5-37t29.5-47q3-7 4-14.5t3-15.5v-18q4-17 .5-31T180 337t-19-18.5-23-10.5q-13-3-26.5 1.5t-23 13-13 20T80 365q3 5 13.5 9.5T115 376q6-2 9-3.5t10-2.5q2 3 4.5 5t4.5 5q4 9 2 17t-7 14-12 10-13 6q-11 4-26.5-.5T65 420q-10-5-21-14t-18.5-21.5-10.5-28 2-32.5q5-16 10.5-27.5T41 274q5-7 14-14.5T75 245t21.5-13 18.5-9q7-1 18-.5t22 1.5 20.5 2.5T188 229q17 6 31 13t25 15q3 2 10 7t7 4q4-6 5-19t6-21q10-26 32.5-47.5T355 151q9-2 23-3t25 3h24q37 8 51 35 4 6 8 16.5t1 20.5q-3 6-8 10t-10 9h-13q-2-3-4.5-4t-3.5-4q-2-4-2-8t-2-9q-2-1-3-1-4-2-11.5-2.5T418 215q-4 1-10.5 5.5T396 231t-7.5 13.5.5 15.5q4 9 11.5 16.5L414 290q9 0 17.5-3t18.5-6 20.5-4.5T494 278q19 4 31 12.5t27 14.5q12 4 26.5 2t29-7 26.5-11.5 19-10.5q23-17 43.5-40.5T728 186q3-9 1.5-19t-6-19-11-15-13.5-6q-2 1-2 .5t-1 .5q-2 7-6.5 12.5T683 151q0 5-.5 9t-.5 8q-2 11-4 20.5t-7 17.5q-12 16-29 21t-36 3.5-37-8.5-31-16q-15-12-20.5-36t-1-46.5 20-37T578 79q3 5 4.5 7t2.5 10q-2 2-2.5 5.5T580 108t-5 5-5 7q-4 11-.5 25.5T578 167q3 3 11 7h12.5l10.5-2q5-2 5.5-3t.5-6q4-5 2-15t0-16q5-22 14.5-39.5T661 64q22-14 47-12t47 14q18 9 30.5 18t20.5 19.5 14.5 24.5 12.5 35q3 11 5 20.5t2 24.5zM300 356q-19 46-40 91l-42 90q-5 14-11.5 28.5T194 596q-4 5-7.5 12t-5.5 14q-3 9 0 17.5t8.5 16T201 668t10 7q5 4 13.5 7t16.5 5q16 4 35.5 1.5T309 682q29-9 51-23t50-25q10-4 28-8t35 1q35 7 60 28 10 8 16 17t16 16V399q-4-5-6.5-7.5L552 385q-19-19-50-28-14-4-26.5 0t-20.5 6q-10 5-23.5 12.5t-28.5 14-31 9.5-32-1q-5-2-11.5-4t-10.5-6q-5-5-10.5-12t-7.5-15q-1-3 .5-3.5t-.5-1.5zm569 0q0 12-7 21.5T843.5 393t-26 7.5T788 398q-13-4-28.5-13T727 368t-35-12-36 2q-7 4-13.5 7.5T630 374q-8 5-16 12.5t-9 19.5q-2 4-1.5 10t.5 11v261h1q15-23 36-36 9-6 17.5-11t17.5-9q14-6 35.5-6.5T747 630q17 5 31 12t27.5 14.5 28 14T865 682q10 4 25.5 6.5t29.5-.5q7-2 13.5-3t13.5-3q6-3 14-9t15.5-14 11-18.5.5-20.5q-4-13-12-26.5T962 568q-14-33-27.5-64T907 441l-14-30-14-30q-2-5-4-13t-6-12zM170 718v75h358q0 9 9 15.5t21 10.5 26 4.5 24-2.5q8-3 17.5-7.5T639 803q1-2 1.5-5t1.5-5h358v-75H641q0 10-8 17t-20 10.5-25.5 4.5-24.5-2q-9-2-18.5-6.5T530 730l-2-6q-2-6 1-6H170z"/>
</svg>
