<svg xmlns="http://www.w3.org/2000/svg" viewBox="-10 0 1188 1000">
  <path fill="currentColor" d="M17 119q-4-11 0-10.5T41 123q14 9 30.5 18t32.5 16 30 11.5 21 4.5q16 0 44-8t66-25q11-5 18.5-7.5T299 129t17.5-1 23.5 1q18 1 32 3.5t27 7.5 26.5 13.5T456 175q11 10 28 20.5t30 16.5l17.5 7 16 4 18.5 1.5 26 .5q21 0 37.5-2t31.5-7.5 31.5-16T731 172q18-13 32.5-21.5T792 137t29-7 33-2q21 0 35 2t32 10q36 15 63.5 24t44.5 9q8 0 21.5-4.5t29-11.5 32.5-16 30-18q23-17 23-9 0 5-5.5 23t-15 44.5-21 57.5-23.5 62-23 58-20 45q-11 25-21 43.5t-22 34-27.5 30.5-39.5 35q-24 21-39.5 35.5t-25 29.5-16 32.5T854 689q-25 93 32 93 33 0 65-52 10-14 20.5-26.5T987 688q8-6 19.5-8.5t23.5-2.5q22 0 35 7l17 8-15 5q-20 5-32.5 22t-23.5 50q-17 56-41.5 83.5T902 888t-84-8-63-51l-15-25v-95q0-42-1-67t-5.5-41.5-12-27.5-21.5-23q-13-11-24-18.5t-22.5-12-25-6.5-31.5-3q-28-1-38 .5t-19 9.5q-19 14-13 35t40 59q15 16 25 28.5t17.5 24 12.5 23 10 25.5q18 54 3.5 113T579 932q-23 24-49.5 35.5T466 979q-63 0-90-23-5-5-14.5-17.5T344 912q-12-18-21-29.5T306 865t-16.5-8.5T270 854q-23 0-34 9-9 9-12 9-6 0-4-14t10-25q10-16 26-24t34-8q21 0 42 9.5t38 28.5q12 14 19.5 22.5t12.5 13 9 6 9 1.5q10 0 22-6t23-15.5 19.5-22T496 813q7-23 5-48.5T491 722q-7-16-27-38.5T420.5 640t-45-35.5T344 590q-11 0-17 8t-16 34q-20 57-63 88t-102 31q-28 0-52-9t-42-25.5T24 678t-10-48q0-44 26-62 5-5 14.5-6.5T74 560q12 0 21.5 2.5t9.5 7.5-10 5q-9 0-15.5 6t-9 15.5T69 617t7 20q8 13 20 19t25 6q20 0 39-13t30-36q14-29 7.5-61.5T164 477q-21-33-49-97T56 228q-15-41-26-72.5T17 119zm204 190q5 10 17 25.5t26 29.5q32 34 62 48.5t73 14.5q23 0 41.5-3.5t30.5-9 16-13.5-1-17q-4-8-21-18t-43.5-20.5-61.5-21-75-19.5q-22-5-40.5-9t-23.5-4l-12-4zm690-7q-42 9-80 20.5t-67.5 23-48 22.5-21.5 19q-5 12 11.5 22t45.5 15q68 11 121-20.5T971 294q2-3 2-4t-5.5-.5T949 293t-38 9z"/>
</svg>
