<svg xmlns="http://www.w3.org/2000/svg" viewBox="-10 0 1131 1000">
  <path fill="currentColor" d="M292 62h6.5l4.5 2q11 4 15.5 13.5T327 98q5 12 9 29t9 33.5 12 30 16 18.5q5 4 11 4 8 0 13.5-5t8.5-8q14-11 27.5-21t38.5-5q4 5 8.5 9t6.5 10q5 11 8 24t6 24q5 8 6.5 13.5T521 260q3-5 13-15.5t18-10.5q15 29 26.5 61.5T604 360q2 4 4 11t5 14 6.5 12.5 7.5 6.5q10-8 23.5-10t24.5-11q11-21 28-36l10.5-21 13.5-17q9-5 18.5-2t17.5 6q14 3 26-2.5t19-13.5q3-5 6-12t8-13q14-23 29-47t30-47q5-9 13-23.5t22-15.5q5 14 13.5 25.5T944 190q10 24 17.5 48.5T980 288q20 51 37.5 101.5T1051 491q5 14 7 26t7 25q5 14 10 36.5t8.5 47.5 4 49-4.5 42q-4 14-12.5 26t-19.5 19q-11 8-23 11.5t-23 8-19.5 12T973 816q1 10 1 18.5V853q3 14 9 29.5t14 30 18 25.5 21 16q10 3 17.5.5t16.5-4.5q1 3 2 4t1 6q-4 2-7.5 6.5t-9.5 7.5q-7 3-15 3-13 0-25-7t-19-12q-30-22-44.5-50.5T930 837q-4-15-1.5-29t6.5-26.5l8-25 4-25.5q-13-10-22.5-12.5T895 721q-6 9-5.5 22t4.5 26.5 9.5 26.5 9.5 23q8 28 8 55.5t-6 51.5-17.5 43.5T869 1001q-14 11-33.5 17.5T796 1025q-11 0-21.5-2t-21.5-7q-11-2-20.5-9T720 988q3 0 4-.5t3-.5q8-5 18.5 1t19.5 7q17 5 36.5-.5T831 981q4-4 8.5-17t8-29.5 5-33T851 874q-2-11-5-22l-6-22q-5-16-13-31l-16-30q-6-10-12.5-23T784 725q-4-3-10-6.5t-11-4.5q-11-5-25-5-16 0-27 9.5T694 742t-7.5 31.5T689 806q17 12 34 12 14 0 24.5-8.5T763 784q2-11-4-20.5t-3-17.5l2-2q2-2 8-2 9 8 16 14t11 19q5 17 1 31t-13 26-20 20.5-22 12.5l-15 5-18 1q-23-5-43.5-14.5T626 832t-25-35-8-46q-8-4-14-6.5t-17-.5q-2 5-4.5 9t-4.5 8q-9 29-1 47t24.5 30 36.5 21 35 19q12 6 22.5 15t18.5 19q9 16 13.5 38t4 45-5 45-13.5 37q-14 23-37.5 41t-50.5 27q-18 5-34.5 1t-30.5-13-24-20.5-14-21.5q-8-18-8-34t6.5-29.5 18-23.5 24.5-16q8-3 18.5-2.5t20 3T593 996t8 12q-6 4-15 4.5t-18 .5q-5 2-8.5 2t-6.5 1q-7 11-12 13 0 14 2.5 23t4.5 19q16 10 32 10 15 0 27-9.5t18.5-25 7.5-34.5-6-37q-9-19-21.5-26.5t-27.5-11-32-5.5-35-10q-7-3-16-9t-18-14-16.5-16.5T448 867q-8-11-14-25t-11-29q-2-9-2.5-17.5T418 780t-7-11-16-4q-4 5-9 6.5t-10 3.5q-10 8-23.5 18t-25 22-20 26-10.5 31q5 2 11 2 2-5 7-6.5t10-3.5q8-7 12-14t14-11q9-4 22-4 17 0 31 8.5t20 21.5q11 28 .5 52.5T395 950q-5 3-16.5 6t-17.5-2l-4-4 2-2q3-11 14-17t16-16q7-17 .5-32T365 868q-2 3-3 3-2 2-5 4.5t-5 4.5q-11 17-17 35t-24 30q-12 8-25 8-11 0-21-6t-18-14.5-13.5-19T226 894q-7-24-3-42.5t12.5-35 19-32T270 753q3-8 3.5-18.5t-1.5-20-6-16.5-10-10q-10-5-15 .5t-7 9.5q-4 9-4.5 19t.5 20.5l2 21-2 19.5q-6 20-17.5 46.5t-28 50-37.5 40-47 16.5q-21 0-38.5-11.5T36 888q-9-21-2.5-39T63 831q1 2 1 2.5t2 5.5q-7 8-7 18.5t5 19.5 14 14.5 19 2.5q19-6 30.5-21t16.5-33q8-28-1-55t-18-47q-11-26-20-52t-18-53l-3-21-2-15q-1-5-1-10.5T79 576q-2-9-1-19.5t2-18.5q2-5 3-12t1-13q5-18 11-33.5t13-30.5q29-69 61-136t61-133q14-33 25.5-65T292 62zm-39 239v21q5 0 7-5 5-6 7-17t4-19h4q2 5 2.5 13.5t.5 16.5q-2 3-2 10.5V334q2 12 1 26.5t4 24.5q2 3 4 4t9 1q5-10 5.5-22t-.5-25-1-26 3-23q2-11 2.5-19t7.5-12v3q3 5 3 14t-.5 19-1 19.5T314 335q2 9 9 13.5t9 12.5q3 10 2 20.5t11 13.5v-4q3-5 3.5-14.5t-1-20.5-4-21.5T339 318q-3-11-4-26t-3-29v-37q-3-12-6.5-27.5t-9-31.5-11.5-29.5-13-20.5q-2 0-3 1-5 3-9.5 11.5t-8 18.5l-7 20-6.5 16q-11 26-18.5 52.5T221 288q-9 21-21.5 43.5T187 383l3.5 3.5 6.5 1.5h3q7-16 15.5-30.5T232 327q5-7 7.5-14t7.5-12h6zm158-18q2 13-1 24t0 21q1 2 4 2 3 3 6.5 2t5.5-2q4-10 7-19.5t5-20.5h3v4q3 5 3.5 13.5T447 321q1 1 4 1 5-7 7.5-15.5T465 288q0 1 1 2v2q3 6 4.5 16l3 20 4.5 18 9 10q5-7 4.5-19t-.5-21q-3-5-2-13t-2-15q-3-10-5-24t-6-27-11-22-20-9q-3 5-6.5 6.5T431 216q-7 5-16.5 15T397 253t-14 25-7 23q2 2 4.5 5t4.5 2q9-3 13.5-10t7.5-15h5zm546 275q0-10-2.5-16t-5.5-11q-4-13-6-22t-6-20q-4-17-10-34.5t-1-35.5q2-1 3-2 2 0 7 5 2 6 2.5 14.5T940 453t3.5 15 9.5 10q1 3 7 3v-3q1-2 .5-8.5t-1.5-14l-2-15-1-11.5q1 0 2.5-1.5t3.5-1.5q5 10 8 27t7.5 34 11.5 29.5 19 14.5q0-26-6.5-43.5T990 452q-1-12-3-24.5t-4-24.5q-6-20-11.5-44.5T957 315q-3-11-7.5-20.5T941 277q-8-19-12.5-35.5T910 212h-7q-3 2-7.5 3.5T888 221q-5 8-6 17t-4 17-9 15.5-8 16.5q-2 8-4.5 17.5T852 323q-3 13-.5 25t4.5 22q6 21 9.5 41t9.5 40q3 10 4.5 23t4 26 6 24.5T899 542l2-1q6-6 6.5-18.5t-.5-26-2-26.5 2-21h3q4 2 6 7 3 5 5 13.5t3.5 18.5l3 20 2.5 17q4 10 4.5 19t9.5 14q2 2 6 1.5t7-1.5zM593 438q0-7-2-12.5t-3-12.5q-2-5-2-11v-11l-21-64q-5-9-8.5-21.5T545 288q-2-1-6-1h-6q-8 7-13 20.5t-2 27.5h7l1-1q1-5 2.5-9.5t5.5-7.5v9.5l2 8.5q2 3 5 5v-2q1-5 2.5-8.5t2.5-6.5h2v21q2 2 3 8t2.5 13 2.5 12.5 1 7.5q4 3 8 4v-1q3-4 3-18l-2-1q1 0 2-1 3 2 3.5 2.5t.5 5.5q3 6 3.5 15t1.5 18 3 16.5 8 10.5q1 2 5 2zm142 4q1 10-1.5 27t2.5 22q1 2 7 2 1-3 2.5-6.5t5.5-5.5q1-2 1.5-1t3.5-1v2q0 4 .5 10t1 12.5 2 12 3.5 8.5q2 1 6 1v-1l4-16-1-19q-1-8-1.5-18.5T772 451q2 1 6 1 2 17 6 41t9 42q1 2 8 2 2-36-1-70t-9-63q-5-11-6-23t-6-21q-4-5-9.5-9t-10.5-9q-7 0-12 .5t-10 4.5q-5 3-9.5 10.5T718 370q-11 16-25.5 33.5T677 447q4 0 8 2 3-5 9.5-9.5T706 436l3 3q2 4 1.5 12.5T709 463q-4 12-8 24.5t-4 29.5h12q2-12 6-21.5t7-19.5q3-8 4-17t4-17h5z"/>
</svg>
