<svg xmlns="http://www.w3.org/2000/svg" viewBox="-10 0 1061 1000">
  <path fill="currentColor" d="M331 33q38-18 89-19.5T521.5 24t94 35.5T682 115q36 52 27.5 118.5T647 394q-45 77-89 118t-82 41q-17 0-33.5-9t-30-24-22-33.5T382 450q0-35 4-39t26 12q65 46 114-8 23-25 12-47.5T490 334l-32-7 41-29q23-16 36.5-20t27.5 4q9 5 22 4.5t25.5-5T632 270t9-15q0-7-5.5-14.5t-13.5-14-18-11-18-4.5q-11 0-18.5-10.5T557 175t-1-32.5 10-30.5q7-11 5-21t-10-16-21-8-29 3q-11 2-38.5 6T418 82q-59 4-95.5 26T277 168q-5 24-9 38.5t-7.5 21.5-8 8-11.5-1q-9-3-12.5-19.5t-2-37.5 7.5-43.5T250 96t33.5-34T331 33zm316 471q37-17 89.5-10.5t106 29 100.5 58 72 77.5q12 21 18 52t7 64-4.5 63.5T1019 888q-35 70-103 107t-159 39q-32 1-56.5-1t-27.5-5q-7-7-4.5-13.5t12-11.5 25-8 34.5-3q24 0 51.5-7t54-19 48-27 32.5-31q7-11 20-18.5t24-7.5q26 0 34-16.5T992 834q-13-9-21-24t-10.5-31.5 1-33T974 718q27-29 3-43t-87-3q-23 3-37 3.5t-22-2-12-8-7-14.5q-8-27-33.5-39t-53-10.5-49 16T655 658q0 20-5 26t-18 1q-9-3-17-6t-10-3-8-10-11-24q-7-19-5.5-39.5t10-39.5 23-34.5T647 504zM386 612q26-14 52-15.5t47 8 34 28.5 13 45q0 28-5 33t-25-2q-38-13-69.5-8.5t-48 19-13.5 35 33 40.5l36 24-54 23q-18 9-29 13.5t-17.5 4.5-11.5-5-12-15-22-18.5-28-8.5-25 5-20 12-10.5 14.5T214 858q3 4-4.5 7t-19 4.5-25 1.5-23.5-2q-7-2-17.5-3t-21.5 0-19.5 2.5T73 873q-5 5 0 18t15 26.5 22.5 25T133 957q17 4 23 11t2 13.5-16.5 11T109 996q-30-1-51.5-12T25 955t-10.5-41.5T29 864q8-16 18-28t26-22 39.5-19.5T172 773q48-17 78-36t57-50q20-24 43.5-45.5T386 612z"/>
</svg>
