<svg xmlns="http://www.w3.org/2000/svg" viewBox="-10 0 1030 1000">
  <path fill="currentColor" d="M238 941q14-2 28 3t17 14q5 7 4 17t-4 17q-7 18-25.5 27t-35.5 13q-13 4-33 4-51 0-93.5-24.5T32 939q-6-12-11-31t0-39q13-62 42-108t80-69q29-11 59.5-20.5T257 648l16-12 12-15h-2q-5 4-19 4-26 0-54-9.5t-52.5-26-44.5-38T82 507q-5-11-9.5-28t.5-35q7-30 22.5-47.5T141 371q3-1 8-.5t7 1.5q11 3 17.5 5.5t11.5 6 9.5 8.5 10.5 14q2 5 6 11.5t-1 14.5q-4 9-12 13t-17 4q-1-1-3-1t-3-2q-2-1-5-10 4-3 7-7t3-10q-5-4-14-9t-19-5q-9 0-14 5-2 4-5 7t-6 7q0 21 11 29t23 18q22 14 40.5 22.5T242 502q11 0 21-3 11-2 20.5-1t20.5-1q16-3 29-10.5t27-14.5q7-1 22-3.5t18-7.5q-7-5-13-16-6-8-12.5-17.5t-11-21.5-6-25.5T362 352q2-6 6.5-14t8-16.5 4-17.5-5.5-18q-2-2-6.5-4t-8.5-4q-18-8-33-8-20 0-34.5 10.5T277 313q4 4 5 8t5 7q2 2 2.5 2t1.5 2q4 0 8-1t6-1q2-5 5-8.5t5-9.5q5 0 6.5.5t5.5 5.5q-2 5-3.5 10.5T318 338q-7 10-21 10-16 0-29-10-6-6-8.5-15t-2.5-19.5 2.5-20.5 6.5-18q11-17 36-32.5t54-15.5q21 0 42.5 12t33.5 29q2 3 3 5.5t5 7.5v-25q3-3 3.5-10.5t1-16 1-16.5 1.5-13q6-32 15-58.5T493 88q8-6 23.5-13t34-12 38-7.5 35.5.5q33 9 65 18t61 22q17 6 36.5 11t30.5 19q14 20 24.5 43t22.5 44q4 10 9 20t10 21q2 2 4.5 5.5t3.5 5.5q2 7-1 14.5t0 9.5q7 7 17.5 11.5T927 310q14 5 29.5 13t27 21 16.5 30.5-3 40.5q-3 9-7 17.5t-9 15.5q-4 6-8.5 9.5T966 471q2 1 2 4.5t1 7.5q3 12 .5 20.5T963 519t-7.5 13.5T953 547q10 24 17 48t14 47q4 11 8.5 23.5T990 689q-5 8-13 15.5T960 716q-6 4-13 6t-9 7q-5 6-6 14t-5 15q-5 22-13 43.5T901 846H374q-3-3-11-4.5t-16.5-3T330 836t-13-3q-25-7-53.5-12t-56.5-5q-39 0-70.5 12.5T93 874q-3 11-1.5 26t3.5 23q2 10 4 18t7 17q8 12 30.5 24t39.5 17q12 3 25.5 2t25.5-5.5 20.5-11T257 969q-7-8-13-13.5t-6-14.5zM655 97q-1 12-5 17.5t-9.5 7.5-13.5 3-17 3q-9 3-19.5 6t-21.5 7q-6 3-14.5 8t-11.5 9q-4 5-5 13t-5 15l-10.5 10.5-7.5 9.5-3 13-1 19.5 1.5 19.5 2.5 13v4l1 7v4q5 18 8 34.5t8 32.5q2 9 1.5 17t1.5 19q4 13 5 32t-5 32q-4 14-16 17t-21 11q1 2 3 8t4 12.5l4 13 2 9.5q16 0 25.5-8t18.5-16q10-5 18-14t12-21q6-14 7.5-35t.5-42.5-4-42-7-34.5q-5-11-8-22t-5-24h3q5 5 10.5 4.5T596 271q13 5 30 7t31 8q6 27 12 57 5 15 4.5 29.5T676 404q2 6 3 15.5t0 15.5q-1 4-3 14l-2 9q-1 4-1 7.5t-2 6.5q-5 18-11.5 43t-.5 52q7 23 15.5 43t16.5 42q5 10 10.5 20t6.5 22q19 2 37 3t35 3h106q9 0 21-1t22.5-3 19-6 11.5-10q3-2-2-15t-6-17q-9-24-17-47.5T923 553h-1q-7 4-23.5 5t-26.5-3q-23-5-41.5-13.5T789 527h-23q-12-4-25-6.5t-23-5.5q-5-1-9.5-1t-8.5-3h2q9-8 23.5-11t25.5-5q27-7 62-7 32 0 64.5 4t58.5 8v-1q2-3 1-10t-1-11q-4-3-8.5-6t-6.5-7q-14 0-24.5 4t-23.5 2q-25-7-50.5-16T772 439q-5-2-14-3.5t-19-3.5-18-4-11-5h4q5-8 13.5-11.5T744 403q27-17 56.5-27.5T865 355q13-1 25-1.5t24-1.5q7-2 14.5 0t12.5 0q-7-3-13-8t-14-6q-11-6-21.5-11.5T872 316q-6-3-13.5-4.5T850 303q1-3 1-5-13-8-25.5-23.5T805 247q-4-5-8.5-16t-7.5-13q-7-6-16-8.5t-20-2.5q-20 0-38.5 5.5T686 224q-5 4-10 8.5t-12 6.5q-5-2-12-2t-13-2q-14-3-28.5-5.5T583 222q-8-2-18.5-2.5T549 214q5-2 6-5.5t3-6.5q5-9 17-15.5t23-9.5q14-6 36.5-9t46.5-3q14 0 26.5 1t23.5 3q12 4 24.5 3.5T776 176q13 4 22.5 12t20.5 16v-2q-4-5-7.5-13.5t-6.5-17-7-16.5-9-12q-10-5-20.5-8t-20.5-7q-14-6-28.5-9.5T689 110q-8-5-16.5-7.5T655 97zM415 814h459v-2q-6-2-8.5-7t-10.5-6q-5-1-9-1.5t-8-1.5l-36-5q-4-1-8-1.5t-9-1.5q-33-8-66-16.5T657 750q-26-10-52.5-21.5T557 702q-4-2-10.5-7.5T533 683t-13.5-11.5T509 665q-5 12-15 15-10 9-19.5 20T454 720q-3 2-9 5t-10 6q-2 4-2 9.5t-2 9.5q-5 14-9.5 30.5T415 814z"/>
</svg>
