<svg xmlns="http://www.w3.org/2000/svg" viewBox="-10 0 803 1000">
  <path fill="currentColor" d="M162 814v4.5l-2 5.5q-3 2-5 4t-7 4v14q-1 1-3.5 3t-2.5 3q-1 3-.5 10.5t1.5 16 3 16 4 9.5q3 2 6.5 2t5.5 5q1 1 2 4h10q1 2 3 5.5t5 5.5q5-5 9-2.5t9 3.5q0-5 .5-6t5.5-3q3-2 4.5-1t4.5 1q1-8 5-11 3-2 6.5-1.5t8.5-1.5q2-6 5-19.5t0-22.5q-1-5-4-7.5t-5-7.5q3-1 5-2t8-1q6 6 12.5 10t9.5 13q5 12 2 27.5t-6 23.5q-12 29-42 45t-72 3q-20-8-36.5-21T87 914q-2-9-4.5-17.5T78 879q-5-22 .5-43T92 802q24-38 58.5-57t87.5-31q26-5 50.5 1t41.5 11v-2q-11-8-17.5-20.5T295 683t-25.5-12-30.5-7q-9-2-22.5-1t-21.5 3q-6 0-12 .5t-13 .5q-13 3-27.5 6t-29 4-28.5-2-25-11q-18-14-24.5-37t-1-45T57 544t45-15v2q1 2 1 8-7 4-15.5 13.5t-14 20.5-7 22.5T70 615q2 2 4 2t4 2q1 1 6.5 8t7.5 9q0-1 2-3.5t4-2.5q6-2 8.5 1t7.5 1q12-1 21-3.5t23-1.5q0-2 .5-4t.5-4q6-5 10-7t14-1q2-15 19-17 3-2 6-1l6 2q7-3 12-7t16 1q2 1 3.5 3.5t2.5 2.5q8 3 15-2.5t17-3.5q5 2 8 5.5t7 3.5q4 1 7-1.5t6-2.5q2 0 5 .5t6 .5q1 2 7 8.5t8 7.5q7-5 15-.5t13 7.5q0-3 .5-6t.5-6q-14-11-12.5-20t4.5-25q-4-2-6-5t-5-6q-1-9 0-13.5t4-11.5q-11-6-11.5-16t2.5-23q-11-8-8-14.5t0-10.5q0-2-5.5-4t-6.5-4q-1-3-2-7t-1-8q-1-1-3-1t-3-2q-3-3-3.5-7t-4.5-6q-8 3-11.5-2t-7.5-6q-7 0-9 1-3-1-5.5-3.5L264 407q-3-1-6.5 2t-9.5 1q-2 0-3.5-1.5T240 406q-5 7-8.5 4.5t-9.5.5q-2 2-2 4.5t-1 2.5q-4 1-9 1-6 5-12 12t-11 12q5 8 4 17.5t-5 18.5q5 0 5.5.5t2.5 5.5q2 2 2 4.5t2 4.5q6-4 8.5 0t5.5 8q2-2 3.5-3t6.5-1q4 5 6.5 7t11.5 2q6-5 14.5-7.5T267 490q4-5 2.5-8t6.5-4q2 3 2.5 4.5t1.5 6.5q3 6 0 12l-5 10q-3 5-10 11t-16.5 10.5-20 7-20.5-.5-19.5-7-17.5-9q-9-7-17-21t-12.5-31-4-34.5T147 406q9-15 22.5-29t28.5-22q17-8 41.5-9t43.5 7q38 13 65 34.5t47 53.5q6 11 10.5 24t9.5 26q2 11 1.5 22t4.5 18v-1q17-18 28.5-41.5T479 449v-4q-11-8-19-19t-19-19q-15-11-31-27t-23-34q-6-14-7-30t-5-33q-6-26-5.5-52.5t4.5-52 11-48.5 15-41q5-11 12-23t13-23q24 30 47.5 60t47.5 59h97q14-23 33-43t35-42q5-6 13-18.5T711 45q9 9 14.5 22.5T736 94q8 19 15 43t11 50.5 4 54-6 53.5q-4 17-5.5 32.5T745 355q-12 20-30.5 36.5T680 425q-5 4-14 11t-7 13q5 13 16.5 25t19.5 24q18 26 33.5 54t27.5 60q6 15 7.5 29t5.5 31q2 6 3.5 16t2.5 21 .5 22-2.5 20q-6 26-12 51.5T736 842q-14 10-31.5 13t-36.5 8q-33 9-72.5 11t-79-1-76-11-62.5-19q-8-3-11-10t-11-10q-7 5-12 3.5t-9.5-5.5-8.5-8-8-6q-5 4-12.5 2.5T292 807q-3-4-5.5-7.5T282 791q-12 3-17.5-.5T251 783q-3 5-10.5 5t-15.5-1.5-14.5-2.5-8.5 0q-5 5-7 9t-8 6h-5q-4 2-5 4t-2 4.5-3.5 4-9.5 2.5zm305-592q-3 2-7 2.5t-8 2.5q-8 5-16 13.5T424 258q-6 16-4 30.5t10 25.5 20.5 18 25.5 7v-2q-4-3-5-8t-3-10q-9-25-5.5-51t13.5-46h-9zm17 0q5 16 12 36t1 43q-2 11-6.5 20t-6.5 18h5q14-9 25.5-12t18.5-20q7-15 6-30.5t-8.5-27.5-19.5-19.5-27-7.5zm157 0q-13 10-23.5 14.5T600 258q-6 16-4 30.5t10 25.5 20 18 25 7v-2q-4-5-7.5-15t-5.5-21.5-2-24 3-22.5q2-9 6-16.5t6-15.5h-10zm18 0q7 13 13 34.5t1 44.5q-3 11-7 20t-7 18h6q8-5 14.5-7.5T692 326t10.5-8 8.5-15q6-15 4-30t-10-26-20-18-26-7z"/>
</svg>
