<svg xmlns="http://www.w3.org/2000/svg" viewBox="-10 0 1269 1000">
  <path fill="currentColor" d="M591 51q5 1 13 7.5T619.5 73 634 89.5t11 13.5q58 57 119 113 77 74 153 146t152 147q20 23 43 43t43 41q5 5 14.5 12.5T1184 620q7 8 5.5 24t-5.5 25q-17 32-35.5 59.5T1120 790q-11 35 .5 61t47.5 26q8-8 24.5-18.5T1223 848q11 17 7.5 32t-15 26-29.5 18-38 7q-21 0-36-7-19-7-32.5-18t-24-25-19.5-29.5-19-31.5q-5-11-15-18.5T986 785q-7-10-15.5-20t-19-17.5-24-10.5-29.5 0q-5 6-9.5 11t-6.5 10q-3 13-1 30.5t5 28.5q11 30 24.5 54t24.5 53q3 11 7.5 28t-.5 34q-3 12-9 24.5t-15.5 23T895 1051t-28 7q-12 0-27-6-18-9-28.5-25.5T786 999q-9-5-21-6.5t-21-4.5q-2-6-2.5-9.5T743 968q2-2 6-5t8-5q10-3 21.5 1.5t22 12 19.5 16 13 11.5q10 2 15 1t11-2q8-16 7-31t-7-27.5-15.5-23.5-18.5-20q-10-10-25-25.5T766.5 841t-40-24.5T681 806q-15 0-32 6-8 5-16 9.5t-15 9.5q-42 27-64 69t-34 99q-3 17 1 33t13.5 28.5 23 20 29.5 7.5q13 0 22-4 17-8 28.5-25t24.5-30h9l6 2q2 1 2 6 4 6 1.5 14.5T673 1069t-11 16.5-8 11.5q-16 20-47.5 32.5T540 1142q-32 0-53.5-9t-35.5-25.5-22.5-39.5-14.5-52q0-4 .5-9.5t.5-7.5v-24q5-19 8-37.5t8-35.5q6-27 1.5-51.5t-16.5-44-29-33-36-18.5q-21-6-39 3t-31 24.5-22 34.5-12 33q-4 17-1 37t0 36q-13 35-35 59t-62 24q-35 0-64.5-19.5T39 947q-3-4-8-11.5t-9-16-5.5-17T21 887q1-7 5-9.5t9-7.5h11q6 10 13 24t15 27 19 22 26 9q5 0 10.5-1t11.5-4q4-3 8.5-5t8.5-7q21-26 17-55t-20-55q-20-30-44-62t-38-67q-4-15-5-36.5t4-38.5q12-35 40-61.5t52-51.5q20-20 39.5-41.5T243 423q20-23 42.5-41.5T326 340q6-8 13.5-14.5l15-13 14.5-13 11-15.5q-3-2-5.5-4.5T371 272q17-11 30-26.5t26-29.5q22-23 45.5-44t43.5-46q6-8 12.5-15T543 97l21-17q8-7 14.5-14T591 51zm150 217q0-8-1-15.5t-5-10.5q-4-13-15.5-21T700 205q-20-19-39.5-38T622 128q-6-6-14-11.5T596 103h-4v1q-8 5-13.5 12.5T566 129q-12 14-24.5 25.5T518 180q-18 24-44 43t-43 45h7q4-4 10.5-5.5T462 260t13.5-1.5T487 257q17-5 33.5-6.5T553 249q47 0 92.5 9t95.5 10zm16 13q-23 0-48.5-2t-48.5-7q-25-6-55.5-5t-58.5 1v3h-1q-1 8-3.5 17t-5.5 17q-4 9-8 19l137-7q-29 6-56 12-23 5-47.5 9.5T520 347q-2 9-5 21t-7 23q-5 13-10 27l189-8q-22 3-52 8-26 5-63 12t-86 18q-2 8-6 20t-8 23l-8 28 268-11q-78 15-139 27-26 5-51.5 9.5T496 553t-33 6-14 2q-4 13-9.5 28t-7.5 31q166-9 331.5-16.5T1095 588v-2q-10-7-20-17.5t-19.5-21.5-20-21.5T1014 508q-15-12-26-27t-25-23q-14-11-25-25t-26-24q-18-14-35.5-31.5T842 344q-13-15-27-27t-28-26q-8-8-16-17.5T752 257v1q3 5 4 11.5t1 11.5zm-372 33q-3 3-5 3.5t4 2.5q5-2 15.5-1.5T415 317q-6-2-14-2.5t-16-.5zm-73 72q-1 1-3 3.5t-4 3.5h11q2 2 8.5 3.5t14 1.5 13.5-1 8-2q-14-2-23.5-5.5T312 386zm-83 83q-3 8-9 10v4q6 0 16 2l20 4 18.5 3 11.5-1q-15-3-28-10t-29-12z"/>
</svg>
